# xmcd
#
# Track frame offsets:
#	150
#	12003
#	24872
#	35003
#	46568
#	59419
#	74686
#	84289
#	96462
#	107142
#	121833
#	130549
#	143387
#	153396
#	164596
#
# Disc length: 2363 seconds
#
# Revision: 0
# Processed by: cddbd v1.5.2PL0 Copyright (c) Steve Scherf et al.
# Submitted via: EasyCDDAExtractor 10.0.3.1
#
DISCID=b809390f
DTITLE=Lydia Mendoza - Recuerdos
DYEAR=1970
DGENRE=Latin
TTITLE0=01 - Mundo Enganoso
TTITLE1=02 - Invierno en Abril
TTITLE2=03 - La Prieta
TTITLE3=04 - Nomas lo que Soy
TTITLE4=05 - Larga Condena
TTITLE5=06 - Que Desconsuelo
TTITLE6=07 - Amor de Madre
TTITLE7=08 - Te Dedico esta Concion
TTITLE8=09 - Yo Vendo Unas Ojos Negros
TTITLE9=10 - El Limpiabotas
TTITLE10=11 - Ausente Yo Me Encuentro
TTITLE11=12 - Por Una Calle Vagando
TTITLE12=13 - Nuestro Problema
TTITLE13=14 - Tres Cartas
TTITLE14=15 - Cantando
EXTD=
EXTT0=
EXTT1=
EXTT2=
EXTT3=
EXTT4=
EXTT5=
EXTT6=
EXTT7=
EXTT8=
EXTT9=
EXTT10=
EXTT11=
EXTT12=
EXTT13=
EXTT14=
PLAYORDER=
